<svg width="500" height="475" viewBox="0 0 500 475" fill="none" xmlns="http://www.w3.org/2000/svg">
<g clip-path="url(#clip0_0_3)">
<path d="M400.222 60.6139L172.087 21.995L24.6002 200.341L105.236 417.293L333.359 455.912L480.858 277.566L400.222 60.6139Z" stroke="#006494" stroke-miterlimit="10" stroke-dasharray="3 3 3 3 3 3"/>
<path d="M344.046 106.76L209.962 84.0634C205.159 83.2488 200.226 83.7137 195.659 85.4113C191.093 87.1089 187.053 89.9793 183.947 93.734L97.2275 198.555C94.131 202.313 92.0769 206.82 91.2711 211.623C90.4653 216.427 90.9362 221.357 92.6365 225.921L140.039 353.502C141.736 358.069 144.605 362.108 148.357 365.214C152.108 368.32 156.611 370.384 161.412 371.198L295.508 393.895C300.309 394.704 305.238 394.236 309.8 392.536C314.362 390.836 318.397 387.965 321.499 384.211L408.218 279.39C411.324 275.638 413.388 271.132 414.2 266.328C415.013 261.524 414.546 256.591 412.847 252.024L365.458 124.443C363.755 119.874 360.88 115.834 357.121 112.73C353.362 109.626 348.853 107.567 344.046 106.76Z" fill="#006494"/>
<path d="M152.881 267.155V395.03C152.881 398.414 151.537 401.659 149.146 404.051C146.754 406.444 143.51 407.788 140.128 407.788H17.076C13.6937 407.788 10.45 406.444 8.0584 404.051C5.66678 401.659 4.32318 398.414 4.32318 395.03V234.52C4.32318 231.136 5.66678 227.891 8.0584 225.499C10.45 223.106 13.6937 221.762 17.076 221.762H107.685" fill="#FAFAFA"/>
<path d="M152.881 267.155V395.03C152.881 398.414 151.537 401.659 149.146 404.051C146.754 406.444 143.51 407.788 140.128 407.788H17.076C13.6937 407.788 10.45 406.444 8.0584 404.051C5.66678 401.659 4.32318 398.414 4.32318 395.03V234.52C4.32318 231.136 5.66678 227.891 8.0584 225.499C10.45 223.106 13.6937 221.762 17.076 221.762H107.685" stroke="#0F2B46" stroke-width="2" stroke-miterlimit="10"/>
<path d="M152.881 267.257H107.328V221.762L152.881 267.257Z" fill="#FFAF0A" stroke="#0F2B46" stroke-width="2" stroke-linecap="round" stroke-linejoin="round"/>
<path d="M73.3032 281.725H29.3698C28.5663 281.725 27.9032 283.001 27.9032 284.685C27.9032 286.331 28.5663 287.658 29.3698 287.658H73.3032C74.1194 287.658 74.7698 286.382 74.7698 284.685C74.7826 283.052 74.1194 281.725 73.3032 281.725Z" fill="#CCCCCC"/>
<path d="M73.3032 295.759H29.3698C28.5663 295.759 27.9032 297.035 27.9032 298.719C27.9032 300.365 28.5663 301.692 29.3698 301.692H73.3032C74.1194 301.692 74.7698 300.416 74.7698 298.719C74.7826 297.086 74.1194 295.759 73.3032 295.759Z" fill="#CCCCCC"/>
<path d="M73.3032 309.793H29.3698C28.5663 309.793 27.9032 311.069 27.9032 312.753C27.9032 314.399 28.5663 315.726 29.3698 315.726H73.3032C74.1194 315.726 74.7698 314.45 74.7698 312.753C74.7826 311.12 74.1194 309.793 73.3032 309.793Z" fill="#CCCCCC"/>
<path d="M73.3032 363.377H29.3698C28.5663 363.377 27.9032 364.653 27.9032 366.337C27.9032 367.983 28.5663 369.31 29.3698 369.31H73.3032C74.1194 369.31 74.7698 368.034 74.7698 366.337C74.7826 364.704 74.1194 363.377 73.3032 363.377Z" fill="#CCCCCC"/>
<path d="M73.3032 377.411H29.3698C28.5663 377.411 27.9032 378.687 27.9032 380.371C27.9032 382.017 28.5663 383.344 29.3698 383.344H73.3032C74.1194 383.344 74.7698 382.068 74.7698 380.371C74.7826 378.738 74.1194 377.411 73.3032 377.411Z" fill="#CCCCCC"/>
<path d="M73.5073 323.827H29.1657C28.4643 323.827 27.8904 324.962 27.8904 326.379C27.8904 327.782 28.4516 328.93 29.1657 328.93H73.5073C74.2087 328.93 74.7826 327.782 74.7826 326.379C74.7826 324.962 74.2087 323.827 73.5073 323.827Z" fill="#CCCCCC"/>
<path d="M73.5073 336.585H29.1657C28.4643 336.585 27.8904 337.721 27.8904 339.137C27.8904 340.54 28.4516 341.688 29.1657 341.688H73.5073C74.2087 341.688 74.7826 340.54 74.7826 339.137C74.7826 337.721 74.2087 336.585 73.5073 336.585Z" fill="#CCCCCC"/>
<path d="M73.1885 349.343H29.4845C28.6174 349.343 27.9032 350.759 27.9032 352.533C27.9032 354.293 28.6174 355.722 29.4845 355.722H73.1885C74.0684 355.722 74.7698 354.293 74.7698 352.533C74.7826 350.759 74.0684 349.343 73.1885 349.343Z" fill="#CCCCCC"/>
<path d="M127.567 363.39H83.7096C82.8934 363.39 82.2302 364.666 82.2302 366.363C82.2302 367.996 82.8934 369.322 83.7096 369.322H127.63C128.446 369.322 129.11 368.047 129.11 366.363C129.046 364.717 128.344 363.39 127.567 363.39Z" fill="#CCCCCC"/>
<path d="M127.567 377.424H83.7096C82.8934 377.424 82.2302 378.7 82.2302 380.396C82.2302 382.03 82.8934 383.356 83.7096 383.356H127.63C128.446 383.356 129.11 382.081 129.11 380.396C129.046 378.751 128.344 377.424 127.567 377.424Z" fill="#CCCCCC"/>
<path d="M127.771 323.84H83.4417C82.7403 323.84 82.1664 324.988 82.1664 326.391C82.1664 327.807 82.7403 328.943 83.4417 328.943H127.771C128.472 328.943 129.046 327.807 129.046 326.391C129.046 324.988 128.472 323.84 127.771 323.84Z" fill="#CCCCCC"/>
<path d="M127.771 336.598H83.4417C82.7403 336.598 82.1664 337.746 82.1664 339.149C82.1664 340.566 82.7403 341.701 83.4417 341.701H127.771C128.472 341.701 129.046 340.566 129.046 339.149C129.046 337.746 128.472 336.598 127.771 336.598Z" fill="#CCCCCC"/>
<path d="M127.464 349.356H83.7095C82.8423 349.356 82.1282 350.785 82.1282 352.545C82.1282 354.306 82.8423 355.735 83.7095 355.735H127.426C128.293 355.735 129.008 354.306 129.008 352.545C129.046 350.785 128.344 349.356 127.464 349.356Z" fill="#CCCCCC"/>
<path d="M308.644 268.112V395.974C308.644 399.358 307.3 402.603 304.909 404.996C302.517 407.388 299.273 408.732 295.891 408.732H172.839C169.457 408.732 166.213 407.388 163.821 404.996C161.43 402.603 160.086 399.358 160.086 395.974V235.464C160.086 232.08 161.43 228.835 163.821 226.443C166.213 224.05 169.457 222.706 172.839 222.706H263.448" fill="#FAFAFA"/>
<path d="M308.644 268.112V395.974C308.644 399.358 307.3 402.603 304.909 404.996C302.517 407.388 299.273 408.732 295.891 408.732H172.839C169.457 408.732 166.213 407.388 163.821 404.996C161.43 402.603 160.086 399.358 160.086 395.974V235.464C160.086 232.08 161.43 228.835 163.821 226.443C166.213 224.05 169.457 222.706 172.839 222.706H263.448" stroke="#0F2B46" stroke-width="2" stroke-miterlimit="10"/>
<path d="M308.644 268.201H263.091V222.706L308.644 268.201Z" fill="#FFAF0A" stroke="#0F2B46" stroke-width="2" stroke-linecap="round" stroke-linejoin="round"/>
<path d="M278.904 282.669H190.463C189.675 282.669 188.92 282.982 188.362 283.54C187.805 284.097 187.492 284.853 187.492 285.642C187.492 286.032 187.569 286.418 187.718 286.777C187.868 287.137 188.087 287.464 188.363 287.739C188.639 288.014 188.967 288.232 189.327 288.38C189.688 288.528 190.074 288.603 190.463 288.602H278.904C279.689 288.602 280.441 288.29 280.996 287.735C281.551 287.18 281.863 286.427 281.863 285.642C281.865 285.252 281.789 284.866 281.641 284.505C281.493 284.145 281.276 283.817 281.001 283.541C280.726 283.264 280.399 283.045 280.039 282.896C279.68 282.746 279.294 282.669 278.904 282.669Z" fill="#CCCCCC"/>
<path d="M278.904 296.703H190.463C189.675 296.703 188.92 297.016 188.362 297.574C187.805 298.131 187.492 298.887 187.492 299.676C187.492 300.066 187.569 300.451 187.718 300.811C187.868 301.171 188.087 301.498 188.363 301.773C188.639 302.048 188.967 302.266 189.327 302.414C189.688 302.562 190.074 302.637 190.463 302.636H278.904C279.689 302.636 280.441 302.324 280.996 301.769C281.551 301.214 281.863 300.461 281.863 299.676C281.865 299.286 281.789 298.9 281.641 298.539C281.493 298.179 281.276 297.851 281.001 297.575C280.726 297.298 280.399 297.079 280.039 296.93C279.68 296.78 279.294 296.703 278.904 296.703Z" fill="#CCCCCC"/>
<path d="M278.904 310.737H190.463C189.675 310.737 188.92 311.05 188.362 311.608C187.805 312.165 187.492 312.921 187.492 313.71C187.492 314.1 187.569 314.485 187.718 314.845C187.868 315.205 188.087 315.532 188.363 315.807C188.639 316.082 188.967 316.3 189.327 316.448C189.688 316.596 190.074 316.671 190.463 316.67H278.904C279.293 316.67 279.678 316.593 280.036 316.444C280.395 316.296 280.722 316.078 280.996 315.803C281.271 315.528 281.489 315.202 281.638 314.842C281.786 314.483 281.863 314.098 281.863 313.71C281.865 313.32 281.789 312.934 281.641 312.573C281.493 312.213 281.276 311.885 281.001 311.608C280.726 311.332 280.399 311.113 280.039 310.964C279.68 310.814 279.294 310.737 278.904 310.737Z" fill="#CCCCCC"/>
<path d="M278.904 364.321H190.463C189.675 364.321 188.92 364.634 188.362 365.192C187.805 365.749 187.492 366.506 187.492 367.294C187.492 367.684 187.569 368.07 187.718 368.43C187.868 368.789 188.087 369.116 188.363 369.391C188.639 369.666 188.967 369.884 189.327 370.032C189.688 370.18 190.074 370.255 190.463 370.254H278.904C279.689 370.254 280.441 369.942 280.996 369.387C281.551 368.832 281.863 368.079 281.863 367.294C281.865 366.904 281.789 366.518 281.641 366.157C281.493 365.797 281.276 365.469 281.001 365.193C280.726 364.916 280.399 364.697 280.039 364.548C279.68 364.398 279.294 364.321 278.904 364.321Z" fill="#CCCCCC"/>
<path d="M278.904 378.355H190.463C189.675 378.355 188.92 378.668 188.362 379.226C187.805 379.783 187.492 380.539 187.492 381.328C187.492 381.718 187.569 382.104 187.718 382.463C187.868 382.823 188.087 383.15 188.363 383.425C188.639 383.7 188.967 383.918 189.327 384.066C189.688 384.214 190.074 384.289 190.463 384.288H278.904C279.689 384.288 280.441 383.976 280.996 383.421C281.551 382.866 281.863 382.113 281.863 381.328C281.865 380.938 281.789 380.552 281.641 380.191C281.493 379.831 281.276 379.503 281.001 379.227C280.726 378.95 280.399 378.731 280.039 378.582C279.68 378.432 279.294 378.355 278.904 378.355Z" fill="#CCCCCC"/>
<path d="M279.312 324.771H190.043C189.366 324.771 188.717 325.04 188.239 325.518C187.761 325.997 187.492 326.646 187.492 327.323C187.492 327.999 187.761 328.648 188.239 329.127C188.717 329.605 189.366 329.874 190.043 329.874H279.312C279.989 329.874 280.638 329.605 281.116 329.127C281.594 328.648 281.863 327.999 281.863 327.323C281.863 326.646 281.594 325.997 281.116 325.518C280.638 325.04 279.989 324.771 279.312 324.771Z" fill="#CCCCCC"/>
<path d="M279.312 337.529H190.043C189.366 337.529 188.717 337.798 188.239 338.277C187.761 338.755 187.492 339.404 187.492 340.081C187.492 340.757 187.761 341.407 188.239 341.885C188.717 342.364 189.366 342.632 190.043 342.632H279.312C279.989 342.632 280.638 342.364 281.116 341.885C281.594 341.407 281.863 340.757 281.863 340.081C281.863 339.404 281.594 338.755 281.116 338.277C280.638 337.798 279.989 337.529 279.312 337.529Z" fill="#CCCCCC"/>
<path d="M278.675 350.287H190.68C189.835 350.287 189.024 350.623 188.426 351.221C187.828 351.82 187.492 352.631 187.492 353.477C187.492 354.323 187.828 355.134 188.426 355.732C189.024 356.33 189.835 356.666 190.68 356.666H278.675C279.52 356.666 280.331 356.33 280.929 355.732C281.527 355.134 281.863 354.323 281.863 353.477C281.863 352.631 281.527 351.82 280.929 351.221C280.331 350.623 279.52 350.287 278.675 350.287Z" fill="#CCCCCC"/>
<path d="M203.752 249.498C203.149 253.074 201.708 256.456 199.546 259.368C197.385 262.28 194.565 264.638 191.318 266.249M191.318 249.498H206.621H191.318ZM198.97 246.946V249.498V246.946ZM200.309 261.618C198.341 259.586 196.767 257.207 195.667 254.601L200.309 261.618ZM203.433 266.084H212.36H203.433ZM201.52 269.911L207.897 257.153L214.273 269.911H201.52Z" stroke="#0F2B46" stroke-width="1.5" stroke-linecap="round" stroke-linejoin="round"/>
<path d="M466.843 268.954V396.816C466.843 400.2 465.499 403.445 463.107 405.838C460.716 408.23 457.472 409.574 454.09 409.574H331.038C327.656 409.574 324.412 408.23 322.02 405.838C319.629 403.445 318.285 400.2 318.285 396.816V236.306C318.285 232.922 319.629 229.677 322.02 227.285C324.412 224.892 327.656 223.548 331.038 223.548H421.659" fill="#FAFAFA"/>
<path d="M466.843 268.954V396.816C466.843 400.2 465.499 403.445 463.107 405.838C460.716 408.23 457.472 409.574 454.09 409.574H331.038C327.656 409.574 324.412 408.23 322.02 405.838C319.629 403.445 318.285 400.2 318.285 396.816V236.306C318.285 232.922 319.629 229.677 322.02 227.285C324.412 224.892 327.656 223.548 331.038 223.548H421.659" stroke="#0F2B46" stroke-width="2" stroke-miterlimit="10"/>
<path d="M466.843 269.043H421.29V223.548L466.843 269.043Z" fill="#FFAF0A" stroke="#0F2B46" stroke-width="2" stroke-linecap="round" stroke-linejoin="round"/>
<path d="M386.87 283.511H347.03C346.29 283.511 345.691 284.787 345.691 286.471C345.691 288.117 346.29 289.444 347.03 289.444H386.87C387.609 289.444 388.145 288.168 388.145 286.471C388.209 284.838 387.609 283.511 386.87 283.511Z" fill="#EB5357"/>
<path d="M437.09 297.175H348.649C348.26 297.175 347.874 297.252 347.514 297.402C347.155 297.551 346.828 297.77 346.553 298.047C346.278 298.323 346.06 298.651 345.912 299.011C345.764 299.372 345.689 299.758 345.691 300.148C345.691 300.933 346.003 301.686 346.557 302.241C347.112 302.796 347.865 303.108 348.649 303.108H437.09C437.48 303.109 437.866 303.034 438.226 302.886C438.587 302.738 438.915 302.52 439.191 302.245C439.467 301.97 439.686 301.643 439.835 301.283C439.985 300.924 440.062 300.538 440.062 300.148C440.062 299.757 439.985 299.371 439.836 299.01C439.686 298.65 439.467 298.322 439.191 298.046C438.916 297.77 438.588 297.551 438.227 297.401C437.867 297.252 437.481 297.175 437.09 297.175Z" fill="#CCCCCC"/>
<path d="M437.09 310.852H348.649C347.865 310.852 347.112 311.164 346.557 311.719C346.003 312.274 345.691 313.027 345.691 313.812C345.689 314.202 345.764 314.588 345.912 314.948C346.06 315.309 346.278 315.637 346.553 315.913C346.828 316.189 347.155 316.408 347.514 316.558C347.874 316.708 348.26 316.785 348.649 316.785H437.09C437.878 316.785 438.634 316.471 439.191 315.914C439.749 315.356 440.062 314.6 440.062 313.812C440.062 313.422 439.985 313.036 439.835 312.676C439.686 312.316 439.467 311.989 439.191 311.714C438.915 311.439 438.587 311.222 438.226 311.074C437.866 310.926 437.48 310.85 437.09 310.852Z" fill="#CCCCCC"/>
<path d="M437.09 365.521H348.649C348.26 365.521 347.874 365.597 347.514 365.747C347.155 365.897 346.828 366.116 346.553 366.392C346.278 366.668 346.06 366.996 345.912 367.357C345.764 367.717 345.689 368.103 345.691 368.493C345.691 369.278 346.003 370.031 346.557 370.586C347.112 371.141 347.865 371.453 348.649 371.453H437.09C437.48 371.455 437.866 371.379 438.226 371.231C438.587 371.083 438.915 370.866 439.191 370.591C439.467 370.316 439.686 369.989 439.835 369.629C439.985 369.269 440.062 368.883 440.062 368.493C440.062 367.705 439.749 366.949 439.191 366.391C438.634 365.834 437.878 365.521 437.09 365.521Z" fill="#CCCCCC"/>
<path d="M437.09 379.197H348.649C347.865 379.197 347.112 379.509 346.557 380.064C346.003 380.619 345.691 381.372 345.691 382.157C345.689 382.547 345.764 382.933 345.912 383.294C346.06 383.654 346.278 383.982 346.553 384.258C346.828 384.535 347.155 384.754 347.514 384.903C347.874 385.053 348.26 385.13 348.649 385.13H437.09C437.878 385.13 438.634 384.817 439.191 384.259C439.749 383.702 440.062 382.946 440.062 382.157C440.062 381.767 439.985 381.381 439.835 381.022C439.686 380.662 439.467 380.335 439.191 380.06C438.915 379.785 438.587 379.567 438.226 379.419C437.866 379.271 437.48 379.196 437.09 379.197Z" fill="#CCCCCC"/>
<path d="M437.511 324.937H348.241C347.565 324.937 346.916 325.206 346.438 325.684C345.96 326.163 345.691 326.812 345.691 327.488C345.691 328.165 345.96 328.814 346.438 329.293C346.916 329.771 347.565 330.04 348.241 330.04H437.511C438.188 330.04 438.836 329.771 439.315 329.293C439.793 328.814 440.062 328.165 440.062 327.488C440.062 326.812 439.793 326.163 439.315 325.684C438.836 325.206 438.188 324.937 437.511 324.937Z" fill="#CCCCCC"/>
<path d="M412.248 351.627H348.012C346.737 351.627 345.691 353.056 345.691 354.816C345.691 356.59 346.724 358.006 348.012 358.006H412.248C413.523 358.006 414.569 356.59 414.569 354.816C414.569 353.056 413.536 351.627 412.248 351.627Z" fill="#EB5357"/>
<path d="M171.028 14.6974L167.011 2.60266" stroke="#006494" stroke-width="2" stroke-miterlimit="10"/>
<path d="M179.445 7.28489L178.233 9.50481L167.317 3.52125L162.152 14.8505L159.844 13.8043L166.144 0L179.445 7.28489Z" fill="#006494"/>
<path d="M484.671 278.382L497.296 280.13" stroke="#006494" stroke-width="2" stroke-miterlimit="10"/>
<path d="M487.579 289.214L486.125 287.147L496.327 280.003L488.459 270.345L490.423 268.75L500 280.513L487.579 289.214Z" fill="#006494"/>
<path d="M335.591 460.25L339.901 472.255" stroke="#006494" stroke-width="2" stroke-miterlimit="10"/>
<path d="M327.352 467.866L328.513 465.621L339.569 471.336L344.467 459.88L346.788 460.888L340.819 474.832L327.352 467.866Z" fill="#006494"/>
<path d="M104.382 422.919L96.998 433.304" stroke="#006494" stroke-width="2" stroke-miterlimit="10"/>
<path d="M93.4272 420.483L95.9395 420.164L97.5591 432.513L109.751 429.987L110.261 432.475L95.4039 435.524L93.4272 420.483Z" fill="#006494"/>
<path d="M15.3672 196.297L2.71637 194.753" stroke="#006494" stroke-width="2" stroke-miterlimit="10"/>
<path d="M12.281 185.516L13.7603 187.557L3.68557 194.868L11.7071 204.398L9.76866 206.018L0 194.421L12.281 185.516Z" fill="#006494"/>
<path opacity="0.24" d="M308.963 207.141V335.016C308.963 338.4 307.619 341.645 305.227 344.037C302.836 346.43 299.592 347.774 296.21 347.774H173.158C169.776 347.774 166.532 346.43 164.14 344.037C161.749 341.645 160.405 338.4 160.405 335.016V174.493C160.405 171.109 161.749 167.864 164.14 165.472C166.532 163.079 169.776 161.735 173.158 161.735H263.767" fill="#0F2B46"/>
<path d="M308.963 194.115V321.99C308.963 325.373 307.619 328.619 305.227 331.011C302.836 333.404 299.592 334.748 296.21 334.748H173.158C169.776 334.748 166.532 333.404 164.14 331.011C161.749 328.619 160.405 325.373 160.405 321.99V161.505C160.405 158.122 161.749 154.876 164.14 152.484C166.532 150.091 169.776 148.747 173.158 148.747H263.767" fill="#FAFAFA"/>
<path d="M308.963 194.115V321.99C308.963 325.373 307.619 328.619 305.227 331.011C302.836 333.404 299.592 334.748 296.21 334.748H173.158C169.776 334.748 166.532 333.404 164.14 331.011C161.749 328.619 160.405 325.373 160.405 321.99V161.505C160.405 158.122 161.749 154.876 164.14 152.484C166.532 150.091 169.776 148.747 173.158 148.747H263.767" stroke="#0F2B46" stroke-width="2" stroke-miterlimit="10"/>
<path d="M308.963 194.243H263.41V148.747L308.963 194.243Z" fill="#FFAF0A" stroke="#0F2B46" stroke-width="2" stroke-linecap="round" stroke-linejoin="round"/>
<path d="M260.974 208.71H190.183C189.48 208.797 188.838 209.155 188.395 209.708C187.952 210.261 187.742 210.965 187.811 211.67C187.739 212.378 187.947 213.085 188.39 213.641C188.834 214.197 189.477 214.556 190.183 214.643H260.974C261.68 214.556 262.325 214.197 262.771 213.642C263.216 213.086 263.427 212.379 263.359 211.67C263.427 210.963 263.215 210.257 262.77 209.704C262.324 209.15 261.679 208.794 260.974 208.71Z" fill="#CCCCCC"/>
<path d="M279.21 222.744H190.833C190.049 222.744 189.296 223.056 188.741 223.611C188.186 224.166 187.875 224.919 187.875 225.704C187.873 226.094 187.948 226.48 188.096 226.841C188.244 227.201 188.462 227.529 188.737 227.805C189.012 228.082 189.338 228.301 189.698 228.45C190.058 228.6 190.444 228.677 190.833 228.677H279.21C279.998 228.677 280.754 228.364 281.311 227.806C281.869 227.249 282.182 226.493 282.182 225.704C282.182 225.314 282.105 224.928 281.955 224.569C281.806 224.209 281.587 223.882 281.311 223.607C281.035 223.332 280.707 223.114 280.346 222.966C279.986 222.818 279.6 222.743 279.21 222.744Z" fill="#CCCCCC"/>
<path d="M272.987 236.778H190.565C189.809 236.808 189.095 237.136 188.579 237.69C188.063 238.245 187.787 238.981 187.811 239.738C187.783 240.497 188.058 241.237 188.574 241.794C189.09 242.351 189.807 242.681 190.565 242.711H272.987C273.364 242.698 273.734 242.61 274.078 242.454C274.421 242.297 274.73 242.074 274.987 241.798C275.244 241.522 275.444 241.198 275.575 240.845C275.707 240.491 275.768 240.115 275.754 239.738C275.778 238.979 275.501 238.241 274.982 237.686C274.463 237.131 273.746 236.805 272.987 236.778Z" fill="#CCCCCC"/>
<path d="M279.21 290.362H190.833C190.049 290.362 189.296 290.674 188.741 291.229C188.186 291.784 187.875 292.537 187.875 293.322C187.873 293.712 187.948 294.098 188.096 294.459C188.244 294.819 188.462 295.147 188.737 295.424C189.012 295.7 189.338 295.919 189.698 296.068C190.058 296.218 190.444 296.295 190.833 296.295H279.21C279.601 296.295 279.987 296.218 280.347 296.069C280.708 295.919 281.036 295.7 281.311 295.424C281.587 295.148 281.806 294.821 281.956 294.46C282.105 294.099 282.182 293.713 282.182 293.322C282.182 292.933 282.105 292.547 281.955 292.187C281.806 291.827 281.587 291.5 281.311 291.225C281.035 290.95 280.707 290.732 280.346 290.584C279.986 290.436 279.6 290.361 279.21 290.362Z" fill="#CCCCCC"/>
<path d="M229.092 304.396H189.15C188.41 304.396 187.811 305.672 187.811 307.356C187.811 309.002 188.41 310.329 189.15 310.329H229.092C229.831 310.329 230.367 309.053 230.367 307.356C230.456 305.723 229.857 304.396 229.092 304.396Z" fill="#CCCCCC"/>
<path d="M260.247 250.812H189.826C189.223 250.889 188.674 251.199 188.297 251.676C187.921 252.153 187.746 252.759 187.811 253.364C187.749 253.968 187.925 254.572 188.301 255.048C188.677 255.525 189.224 255.836 189.826 255.915H260.247C260.846 255.833 261.39 255.52 261.763 255.044C262.137 254.568 262.311 253.966 262.249 253.364C262.314 252.761 262.141 252.157 261.767 251.68C261.393 251.203 260.847 250.892 260.247 250.812Z" fill="#006494"/>
<path d="M277.144 263.57H190.285C189.622 263.59 188.993 263.868 188.531 264.344C188.069 264.821 187.811 265.458 187.811 266.122C187.811 266.786 188.069 267.423 188.531 267.9C188.993 268.376 189.622 268.654 190.285 268.674H277.144C277.81 268.657 278.442 268.381 278.907 267.904C279.371 267.427 279.631 266.788 279.631 266.122C279.631 265.456 279.371 264.817 278.907 264.34C278.442 263.863 277.81 263.587 277.144 263.57Z" fill="#CCCCCC"/>
<path d="M270.232 276.328H190.693C189.889 276.371 189.134 276.731 188.594 277.329C188.054 277.926 187.773 278.713 187.811 279.518C187.773 280.323 188.054 281.11 188.594 281.707C189.134 282.305 189.889 282.665 190.693 282.707H270.232C271.036 282.665 271.791 282.305 272.331 281.707C272.871 281.11 273.153 280.323 273.114 279.518C273.153 278.713 272.871 277.926 272.331 277.329C271.791 276.731 271.036 276.371 270.232 276.328Z" fill="#CCCCCC"/>
<path opacity="0.24" d="M467.263 207.141V335.016C467.263 338.4 465.92 341.645 463.528 344.037C461.137 346.43 457.893 347.774 454.511 347.774H331.459C328.076 347.774 324.833 346.43 322.441 344.037C320.049 341.645 318.706 338.4 318.706 335.016V174.493C318.706 171.109 320.049 167.864 322.441 165.472C324.833 163.079 328.076 161.735 331.459 161.735H422.067" fill="#0F2B46"/>
<path d="M467.263 194.115V321.99C467.263 325.373 465.92 328.619 463.528 331.011C461.137 333.404 457.893 334.748 454.511 334.748H331.459C328.076 334.748 324.833 333.404 322.441 331.011C320.049 328.619 318.706 325.373 318.706 321.99V161.505C318.706 158.122 320.049 154.876 322.441 152.484C324.833 150.091 328.076 148.747 331.459 148.747H422.067" fill="#FAFAFA"/>
<path d="M467.263 194.115V321.99C467.263 325.373 465.92 328.619 463.528 331.011C461.137 333.404 457.893 334.748 454.511 334.748H331.459C328.076 334.748 324.833 333.404 322.441 331.011C320.049 328.619 318.706 325.373 318.706 321.99V161.505C318.706 158.122 320.049 154.876 322.441 152.484C324.833 150.091 328.076 148.747 331.459 148.747H422.067" stroke="#0F2B46" stroke-width="2" stroke-miterlimit="10"/>
<path d="M467.264 194.243H421.659V148.747L467.264 194.243Z" fill="#FFAF0A" stroke="#0F2B46" stroke-width="2" stroke-linecap="round" stroke-linejoin="round"/>
<path d="M419.326 208.71H348.484C347.781 208.797 347.139 209.155 346.696 209.708C346.253 210.261 346.043 210.965 346.112 211.67C346.04 212.378 346.248 213.085 346.691 213.641C347.135 214.197 347.778 214.556 348.484 214.643H419.326C420.032 214.556 420.677 214.197 421.122 213.642C421.568 213.086 421.779 212.379 421.71 211.67C421.779 210.963 421.567 210.257 421.122 209.704C420.676 209.15 420.031 208.794 419.326 208.71Z" fill="#CCCCCC"/>
<path d="M437.511 222.744H349.07C348.286 222.744 347.533 223.056 346.978 223.611C346.423 224.166 346.112 224.919 346.112 225.704C346.11 226.094 346.185 226.48 346.333 226.841C346.481 227.201 346.699 227.529 346.974 227.805C347.249 228.082 347.575 228.301 347.935 228.45C348.295 228.6 348.681 228.677 349.07 228.677H437.511C438.299 228.677 439.055 228.364 439.612 227.806C440.17 227.249 440.483 226.493 440.483 225.704C440.483 225.314 440.406 224.928 440.256 224.569C440.107 224.209 439.888 223.882 439.612 223.607C439.335 223.332 439.008 223.114 438.647 222.966C438.287 222.818 437.901 222.743 437.511 222.744Z" fill="#CCCCCC"/>
<path d="M431.288 236.778H348.866C348.11 236.808 347.396 237.136 346.88 237.69C346.364 238.245 346.088 238.981 346.112 239.738C346.084 240.497 346.359 241.237 346.875 241.794C347.391 242.351 348.107 242.681 348.866 242.711H431.288C432.048 242.681 432.765 242.352 433.284 241.795C433.802 241.238 434.079 240.499 434.055 239.738C434.076 238.98 433.797 238.244 433.279 237.69C432.761 237.136 432.046 236.808 431.288 236.778Z" fill="#CCCCCC"/>
<path d="M437.511 290.362H349.07C348.286 290.362 347.533 290.674 346.978 291.229C346.423 291.784 346.112 292.537 346.112 293.322C346.11 293.712 346.185 294.098 346.333 294.459C346.481 294.819 346.699 295.147 346.974 295.424C347.249 295.7 347.575 295.919 347.935 296.068C348.295 296.218 348.681 296.295 349.07 296.295H437.511C437.901 296.295 438.288 296.218 438.648 296.069C439.009 295.919 439.336 295.7 439.612 295.424C439.888 295.148 440.107 294.821 440.256 294.46C440.406 294.099 440.483 293.713 440.483 293.322C440.483 292.933 440.406 292.547 440.256 292.187C440.107 291.827 439.888 291.5 439.612 291.225C439.335 290.95 439.008 290.732 438.647 290.584C438.287 290.436 437.901 290.361 437.511 290.362Z" fill="#CCCCCC"/>
<path d="M437.511 304.396H349.07C348.286 304.396 347.533 304.708 346.978 305.263C346.423 305.818 346.112 306.571 346.112 307.356C346.11 307.746 346.185 308.132 346.333 308.493C346.481 308.853 346.699 309.181 346.974 309.457C347.249 309.734 347.575 309.953 347.935 310.102C348.295 310.252 348.681 310.329 349.07 310.329H437.511C438.299 310.329 439.055 310.016 439.612 309.458C440.17 308.901 440.483 308.145 440.483 307.356C440.483 306.966 440.406 306.581 440.256 306.221C440.107 305.861 439.888 305.534 439.612 305.259C439.335 304.984 439.008 304.766 438.647 304.618C438.287 304.47 437.901 304.395 437.511 304.396Z" fill="#CCCCCC"/>
<path d="M418.535 250.812H348.114C347.513 250.892 346.968 251.203 346.594 251.68C346.219 252.157 346.047 252.761 346.112 253.364C346.05 253.966 346.224 254.568 346.598 255.044C346.971 255.52 347.515 255.833 348.114 255.915H418.535C419.137 255.836 419.683 255.525 420.06 255.048C420.436 254.572 420.612 253.968 420.55 253.364C420.615 252.759 420.44 252.153 420.063 251.676C419.687 251.199 419.138 250.889 418.535 250.812Z" fill="#006494"/>
<path d="M435.445 263.57H348.586C347.923 263.59 347.293 263.868 346.831 264.344C346.37 264.821 346.111 265.458 346.112 266.122C346.111 266.786 346.37 267.423 346.831 267.9C347.293 268.376 347.923 268.654 348.586 268.674H435.445C436.111 268.657 436.743 268.381 437.208 267.904C437.672 267.427 437.932 266.788 437.932 266.122C437.932 265.456 437.672 264.817 437.208 264.34C436.743 263.863 436.111 263.587 435.445 263.57Z" fill="#CCCCCC"/>
<path d="M428.533 276.328H348.968C348.164 276.371 347.41 276.731 346.87 277.329C346.33 277.926 346.048 278.713 346.086 279.518C346.048 280.323 346.33 281.11 346.87 281.707C347.41 282.305 348.164 282.665 348.968 282.707H428.508C429.312 282.665 430.066 282.305 430.606 281.707C431.146 281.11 431.428 280.323 431.39 279.518C431.428 278.717 431.15 277.934 430.615 277.337C430.081 276.74 429.333 276.378 428.533 276.328Z" fill="#CCCCCC"/>
<path opacity="0.24" d="M466.843 129.278V257.153C466.843 260.537 465.499 263.782 463.107 266.174C460.716 268.567 457.472 269.911 454.09 269.911H331.038C327.656 269.911 324.412 268.567 322.02 266.174C319.629 263.782 318.285 260.537 318.285 257.153V96.6428C318.285 93.2592 319.629 90.0141 322.02 87.6215C324.412 85.2289 327.656 83.8847 331.038 83.8847H421.659" fill="#0F2B46"/>
<path d="M466.843 116.29V244.152C466.843 247.536 465.499 250.781 463.107 253.174C460.716 255.566 457.472 256.91 454.09 256.91H331.038C327.656 256.91 324.412 255.566 322.02 253.174C319.629 250.781 318.285 247.536 318.285 244.152V83.6423C318.285 80.2586 319.629 77.0136 322.02 74.621C324.412 72.2283 327.656 70.8842 331.038 70.8842H421.659" fill="#FAFAFA"/>
<path d="M466.843 116.29V244.152C466.843 247.536 465.499 250.781 463.107 253.174C460.716 255.566 457.472 256.91 454.09 256.91H331.038C327.656 256.91 324.412 255.566 322.02 253.174C319.629 250.781 318.285 247.536 318.285 244.152V83.6423C318.285 80.2586 319.629 77.0136 322.02 74.621C324.412 72.2283 327.656 70.8842 331.038 70.8842H421.659" stroke="#0F2B46" stroke-width="2" stroke-miterlimit="10"/>
<path d="M466.843 116.38H421.29V70.8842L466.843 116.38Z" fill="#FFAF0A" stroke="#0F2B46" stroke-width="2" stroke-linecap="round" stroke-linejoin="round"/>
<path d="M391.512 131.179H347.578C346.762 131.179 346.112 132.455 346.112 134.139C346.112 135.785 346.762 137.112 347.578 137.112H391.512C392.315 137.112 392.978 135.836 392.978 134.139C392.978 132.506 392.328 131.179 391.512 131.179Z" fill="#EB5357"/>
<path d="M391.512 145.213H347.578C346.762 145.213 346.112 146.489 346.112 148.173C346.112 149.819 346.762 151.146 347.578 151.146H391.512C392.315 151.146 392.978 149.87 392.978 148.173C392.978 146.54 392.328 145.213 391.512 145.213Z" fill="#CCCCCC"/>
<path d="M391.512 159.247H347.578C346.762 159.247 346.112 160.523 346.112 162.207C346.112 163.853 346.762 165.18 347.578 165.18H391.512C392.315 165.18 392.978 163.904 392.978 162.207C392.978 160.574 392.328 159.247 391.512 159.247Z" fill="#CCCCCC"/>
<path d="M391.512 212.831H347.578C346.762 212.831 346.112 214.107 346.112 215.791C346.112 217.437 346.762 218.764 347.578 218.764H391.512C392.315 218.764 392.978 217.488 392.978 215.791C392.978 214.158 392.328 212.831 391.512 212.831Z" fill="#CCCCCC"/>
<path d="M391.512 226.865H347.578C346.762 226.865 346.112 228.141 346.112 229.825C346.112 231.471 346.762 232.798 347.578 232.798H391.512C392.315 232.798 392.978 231.522 392.978 229.825C392.978 228.192 392.328 226.865 391.512 226.865Z" fill="#CCCCCC"/>
<path d="M391.716 173.281H347.374C346.673 173.281 346.099 174.416 346.099 175.833C346.099 177.236 346.66 178.384 347.374 178.384H391.716C392.417 178.384 392.991 177.236 392.991 175.833C392.978 174.416 392.417 173.281 391.716 173.281Z" fill="#CCCCCC"/>
<path d="M391.716 186.039H347.374C346.673 186.039 346.099 187.175 346.099 188.591C346.099 189.994 346.66 191.142 347.374 191.142H391.716C392.417 191.142 392.991 189.994 392.991 188.591C392.978 187.175 392.417 186.039 391.716 186.039Z" fill="#CCCCCC"/>
<path d="M391.397 198.797H347.693C346.813 198.797 346.112 200.226 346.112 201.987C346.112 203.747 346.813 205.176 347.693 205.176H391.397C392.277 205.176 392.978 203.747 392.978 201.987C392.978 200.226 392.328 198.797 391.397 198.797Z" fill="#CCCCCC"/>
<path d="M445.775 212.844H401.854C401.038 212.844 400.375 214.12 400.375 215.817C400.375 217.45 401.038 218.776 401.854 218.776H445.775C446.591 218.776 447.242 217.501 447.242 215.817C447.242 214.171 446.591 212.844 445.775 212.844Z" fill="#CCCCCC"/>
<path d="M445.775 226.878H401.854C401.038 226.878 400.375 228.154 400.375 229.851C400.375 231.484 401.038 232.81 401.854 232.81H445.775C446.591 232.81 447.242 231.535 447.242 229.851C447.242 228.205 446.591 226.878 445.775 226.878Z" fill="#CCCCCC"/>
<path d="M445.66 198.81H401.956C401.089 198.81 400.375 200.239 400.375 202C400.375 203.76 401.089 205.189 401.956 205.189H445.66C446.54 205.189 447.242 203.76 447.242 202C447.242 200.239 446.54 198.81 445.66 198.81Z" fill="#EB5357"/>
<path d="M418.242 145.749C413.452 147.055 409.373 150.202 406.891 154.503C404.41 158.804 403.727 163.911 404.991 168.714C405.623 171.109 406.72 173.356 408.22 175.327C409.72 177.297 411.594 178.952 413.735 180.198C415.875 181.443 418.24 182.254 420.694 182.584C423.148 182.915 425.643 182.758 428.036 182.122C430.425 181.487 432.665 180.387 434.629 178.885C436.593 177.383 438.243 175.508 439.482 173.369C440.722 171.229 441.529 168.866 441.856 166.415C442.183 163.963 442.024 161.471 441.388 159.081C441.382 159.043 441.382 159.004 441.388 158.966L423.088 163.84L418.242 145.749Z" fill="white" stroke="#0F2B46" stroke-width="2" stroke-miterlimit="10"/>
<path d="M423.84 137.979H423.738L428.546 156.057L446.846 151.197C445.533 146.401 442.376 142.32 438.066 139.844C433.756 137.368 428.642 136.697 423.84 137.979Z" fill="#FFC857"/>
<path d="M421.8 140.71H421.698L426.505 158.801L444.793 153.94C443.485 149.143 440.332 145.059 436.024 142.58C431.716 140.101 426.602 139.429 421.8 140.71Z" stroke="#0F2B46" stroke-width="2" stroke-miterlimit="10"/>
<path d="M402.568 56.1868L410.131 45.9165" stroke="#006494" stroke-width="2" stroke-miterlimit="10"/>
<path d="M413.485 58.7895L410.973 59.0702L409.557 46.6948L397.314 49.0167L396.855 46.5289L411.75 43.7221L413.485 58.7895Z" fill="#006494"/>
</g>
<defs>
<clipPath id="clip0_0_3">
<rect width="500" height="474.832" fill="white"/>
</clipPath>
</defs>
</svg>
